# xmcd CD database file
#
# Track frame offsets:
#	150
#	21476
#	39773
#	56078
#	72855
#	94481
#	116293
#	137195
#	156422
#	182107
#
# Disc length: 2634 seconds
#
# Revision: 0
# Processed by: cddbd v1.5.2PL0 Copyright (c) Steve Scherf et al.
# Submitted via: CDex 1.51
#
DISCID=8c0a480a
DTITLE=Artimus Piledriver - Artimus Piledriver
DYEAR=1900
DGENRE=Country
TTITLE0=Swamp Devil
TTITLE1=Dixie Fight Song
TTITLE2=Ride On
TTITLE3=Dirt Road White girl
TTITLE4=High Life
TTITLE5=Natural Progression
TTITLE6=Up The Creek
TTITLE7=Shaggin Ass
TTITLE8=Get Some
TTITLE9=Bonus track
EXTD=
EXTT0=
EXTT1=
EXTT2=
EXTT3=
EXTT4=
EXTT5=
EXTT6=
EXTT7=
EXTT8=
EXTT9=
PLAYORDER=
